<?xml version="1.0" encoding="UTF-8"?>
<!DOCTYPE svg PUBLIC "-//W3C//DTD SVG 1.1//EN" "http://www.w3.org/Graphics/SVG/1.1/DTD/svg11.dtd">
<svg xmlns="http://www.w3.org/2000/svg" version="1.1" width="444px" height="396px" style="shape-rendering:geometricPrecision; text-rendering:geometricPrecision; image-rendering:optimizeQuality; fill-rule:evenodd; clip-rule:evenodd" xmlns:xlink="http://www.w3.org/1999/xlink">
<g><path style="opacity:1" fill="#D3EFFF" d="M -0.5,-0.5 C 147.5,-0.5 295.5,-0.5 443.5,-0.5C 443.5,131.5 443.5,263.5 443.5,395.5C 295.5,395.5 147.5,395.5 -0.5,395.5C -0.5,263.5 -0.5,131.5 -0.5,-0.5 Z"/></g>
<g><path style="opacity:1" fill="#29343a" d="M 366.5,32.5 C 369.701,34.2603 373.367,35.0936 377.5,35C 378,35.5 378.5,36 379,36.5C 379.181,39.6946 379.681,42.6946 380.5,45.5C 382.368,49.5161 381.368,52.5161 377.5,54.5C 375.621,55.8952 374.621,57.8952 374.5,60.5C 373.508,60.6716 372.842,60.3382 372.5,59.5C 371.912,56.9369 370.912,54.6036 369.5,52.5C 368.421,50.457 366.754,49.1237 364.5,48.5C 362.965,47.2121 361.299,47.2121 359.5,48.5C 358.408,51.0237 357.074,53.357 355.5,55.5C 353.5,56.8333 351.833,58.5 350.5,60.5C 348.326,60.7497 346.659,61.7497 345.5,63.5C 343.246,64.3147 340.913,64.9813 338.5,65.5C 335.004,63.7387 331.337,63.2387 327.5,64C 326.177,64.8159 325.511,65.9826 325.5,67.5C 324.206,71.2229 323.039,71.2229 322,67.5C 321.254,61.4492 321.421,55.4492 322.5,49.5C 322.704,47.3146 323.37,45.3146 324.5,43.5C 325.167,42.1667 326.167,41.1667 327.5,40.5C 329.404,40.2624 330.738,39.2624 331.5,37.5C 336.767,36.1836 342.1,35.1836 347.5,34.5C 349.967,34.2451 351.967,33.2451 353.5,31.5C 356.519,29.6629 359.852,29.1629 363.5,30C 364.942,30.3768 365.942,31.2101 366.5,32.5 Z"/></g>
<g><path style="opacity:1" fill="#72797d" d="M 353.5,31.5 C 351.967,33.2451 349.967,34.2451 347.5,34.5C 347.5,34.1667 347.5,33.8333 347.5,33.5C 349.421,32.6373 351.421,31.9707 353.5,31.5 Z"/></g>
<g><path style="opacity:1" fill="#8b9194" d="M 366.5,32.5 C 370.415,33.2668 374.415,33.7668 378.5,34C 379,34.5 379.5,35 380,35.5C 380.498,38.8168 380.665,42.1501 380.5,45.5C 379.681,42.6946 379.181,39.6946 379,36.5C 378.5,36 378,35.5 377.5,35C 373.367,35.0936 369.701,34.2603 366.5,32.5 Z"/></g>
<g><path style="opacity:1" fill="#8e9497" d="M 347.5,33.5 C 347.5,33.8333 347.5,34.1667 347.5,34.5C 342.1,35.1836 336.767,36.1836 331.5,37.5C 336.422,34.9361 341.755,33.6028 347.5,33.5 Z"/></g>
<g><path style="opacity:1" fill="#8b9194" d="M 331.5,37.5 C 330.738,39.2624 329.404,40.2624 327.5,40.5C 328.262,38.7376 329.596,37.7376 331.5,37.5 Z"/></g>
<g><path style="opacity:1" fill="#8b9194" d="M 324.5,43.5 C 323.37,45.3146 322.704,47.3146 322.5,49.5C 322.167,49.5 321.833,49.5 321.5,49.5C 321.025,46.6874 322.025,44.6874 324.5,43.5 Z"/></g>
<g><path style="opacity:1" fill="#b97a74" d="M 364.5,48.5 C 361.405,48.6263 359.572,50.293 359,53.5C 358.184,54.8228 357.017,55.4894 355.5,55.5C 357.074,53.357 358.408,51.0237 359.5,48.5C 361.299,47.2121 362.965,47.2121 364.5,48.5 Z"/></g>
<g><path style="opacity:1" fill="#f09489" d="M 364.5,48.5 C 366.754,49.1237 368.421,50.457 369.5,52.5C 369.5,53.8333 369.5,55.1667 369.5,56.5C 367.645,56.272 366.812,56.9387 367,58.5C 368.699,59.4061 370.533,59.7394 372.5,59.5C 372.842,60.3382 373.508,60.6716 374.5,60.5C 374.589,69.4999 371.922,77.4999 366.5,84.5C 362.566,85.3597 358.566,85.693 354.5,85.5C 354.198,88.0593 354.532,90.3926 355.5,92.5C 355.392,94.5138 356.058,96.1805 357.5,97.5C 357.5,99.5 357.5,101.5 357.5,103.5C 356.5,103.5 355.5,103.5 354.5,103.5C 348.435,101.455 343.102,98.1213 338.5,93.5C 337.523,90.7131 337.19,87.7131 337.5,84.5C 337.802,81.9407 337.468,79.6074 336.5,77.5C 329.039,78.3732 325.372,75.0399 325.5,67.5C 325.511,65.9826 326.177,64.8159 327.5,64C 331.337,63.2387 335.004,63.7387 338.5,65.5C 340.913,64.9813 343.246,64.3147 345.5,63.5C 346.833,63.1667 348.167,62.8333 349.5,62.5C 349.5,63.5 349.5,64.5 349.5,65.5C 350.833,65.5 352.167,65.5 353.5,65.5C 353.737,64.209 353.404,63.209 352.5,62.5C 351.833,61.8333 351.167,61.1667 350.5,60.5C 353.167,59.8333 354.833,58.1667 355.5,55.5C 357.017,55.4894 358.184,54.8228 359,53.5C 359.572,50.293 361.405,48.6263 364.5,48.5 Z"/></g>
<g><path style="opacity:1" fill="#43474c" d="M 321.5,49.5 C 321.833,49.5 322.167,49.5 322.5,49.5C 321.421,55.4492 321.254,61.4492 322,67.5C 323.039,71.2229 324.206,71.2229 325.5,67.5C 325.372,75.0399 329.039,78.3732 336.5,77.5C 336.5,79.1667 336.5,80.8333 336.5,82.5C 333.892,82.5997 331.558,81.9331 329.5,80.5C 322.207,74.9225 318.874,67.4225 319.5,58C 319.667,55.8333 319.833,53.6667 320,51.5C 320.278,50.5842 320.778,49.9175 321.5,49.5 Z"/></g>
<g><path style="opacity:1" fill="#996a67" d="M 369.5,52.5 C 370.912,54.6036 371.912,56.9369 372.5,59.5C 370.533,59.7394 368.699,59.4061 367,58.5C 366.812,56.9387 367.645,56.272 369.5,56.5C 369.5,55.1667 369.5,53.8333 369.5,52.5 Z"/></g>
<g><path style="opacity:1" fill="#b47872" d="M 355.5,55.5 C 354.833,58.1667 353.167,59.8333 350.5,60.5C 351.833,58.5 353.5,56.8333 355.5,55.5 Z"/></g>
<g><path style="opacity:1" fill="#918d8e" d="M 377.5,54.5 C 377.088,56.8867 376.088,58.8867 374.5,60.5C 374.621,57.8952 375.621,55.8952 377.5,54.5 Z"/></g>
<g><path style="opacity:1" fill="#ac746f" d="M 350.5,60.5 C 351.167,61.1667 351.833,61.8333 352.5,62.5C 351.5,62.5 350.5,62.5 349.5,62.5C 348.167,62.8333 346.833,63.1667 345.5,63.5C 346.659,61.7497 348.326,60.7497 350.5,60.5 Z"/></g>
<g><path style="opacity:1" fill="#6d5454" d="M 349.5,62.5 C 350.5,62.5 351.5,62.5 352.5,62.5C 353.404,63.209 353.737,64.209 353.5,65.5C 352.167,65.5 350.833,65.5 349.5,65.5C 349.5,64.5 349.5,63.5 349.5,62.5 Z"/></g>
<g><path style="opacity:1" fill="#795a59" d="M 365.5,61.5 C 366.5,61.5 367.5,61.5 368.5,61.5C 368.5,62.8333 368.5,64.1667 368.5,65.5C 367.5,65.5 366.5,65.5 365.5,65.5C 365.5,64.1667 365.5,62.8333 365.5,61.5 Z"/></g>
<g><path style="opacity:1" fill="#847778" d="M 336.5,77.5 C 337.468,79.6074 337.802,81.9407 337.5,84.5C 336.391,84.4431 335.391,84.1098 334.5,83.5C 332.067,83.7271 330.401,82.7271 329.5,80.5C 331.558,81.9331 333.892,82.5997 336.5,82.5C 336.5,80.8333 336.5,79.1667 336.5,77.5 Z"/></g>
<g><path style="opacity:1" fill="#efefef" d="M 332.5,87.5 C 330.888,94.0238 331.221,100.357 333.5,106.5C 333.721,109.279 333.388,111.946 332.5,114.5C 326.698,118.574 325.031,123.907 327.5,130.5C 327.765,136.914 329.765,142.58 333.5,147.5C 332.167,147.5 330.833,147.5 329.5,147.5C 329.539,146.244 329.039,145.244 328,144.5C 326.807,146.605 325.14,148.272 323,149.5C 320.252,154.666 317.252,159.666 314,164.5C 313.675,162.447 314.009,160.447 315,158.5C 317.302,152.713 319.802,147.046 322.5,141.5C 321.503,138.838 320.503,136.172 319.5,133.5C 318.726,132.289 317.893,132.289 317,133.5C 309.896,146.166 306.396,159.833 306.5,174.5C 308.06,174.481 309.56,174.148 311,173.5C 312.28,173.613 313.113,174.28 313.5,175.5C 311.509,182.02 311.009,188.686 312,195.5C 313.481,196.471 314.315,197.804 314.5,199.5C 312.451,198.118 310.785,196.452 309.5,194.5C 309.5,188.167 309.5,181.833 309.5,175.5C 307.821,175.285 306.821,175.952 306.5,177.5C 304.882,180.171 304.215,183.171 304.5,186.5C 300.369,188.183 296.036,188.85 291.5,188.5C 291.167,188.5 290.833,188.5 290.5,188.5C 290.801,180.414 290.467,172.414 289.5,164.5C 291.109,141.731 296.943,120.064 307,99.5C 308.938,96.8941 311.438,95.0608 314.5,94C 320.901,92.7403 326.901,90.5736 332.5,87.5 Z"/></g>
<g><path style="opacity:1" fill="#e2e3e3" d="M 366.5,84.5 C 365.588,85.7382 365.421,87.0715 366,88.5C 377.637,97.7967 386.637,109.13 393,122.5C 396.115,124.647 398.948,127.147 401.5,130C 404.438,130.712 407.104,130.212 409.5,128.5C 405.725,132.29 401.725,135.623 397.5,138.5C 393.526,140.16 389.526,141.827 385.5,143.5C 383.252,139.746 380.419,136.412 377,133.5C 376.781,132.062 376.281,130.729 375.5,129.5C 374.283,132.891 373.283,136.224 372.5,139.5C 372.5,137.833 372.5,136.167 372.5,134.5C 375.11,129.33 377.11,123.83 378.5,118C 374.868,105.868 367.202,97.3679 355.5,92.5C 354.532,90.3926 354.198,88.0593 354.5,85.5C 358.566,85.693 362.566,85.3597 366.5,84.5 Z"/></g>
<g><path style="opacity:1" fill="#475c66" d="M 355.5,92.5 C 367.202,97.3679 374.868,105.868 378.5,118C 377.11,123.83 375.11,129.33 372.5,134.5C 371.35,139.316 371.184,144.316 372,149.5C 373.73,155.321 374.897,161.321 375.5,167.5C 372.011,169.533 368.344,171.2 364.5,172.5C 359.184,173.296 353.851,173.963 348.5,174.5C 348.833,164.5 349.167,154.5 349.5,144.5C 349.5,142.833 349.5,141.167 349.5,139.5C 350.653,133.347 350.82,127.014 350,120.5C 349.243,118.685 348.41,117.019 347.5,115.5C 346.761,111.955 345.428,108.622 343.5,105.5C 343.975,102.687 342.975,100.687 340.5,99.5C 340.296,97.3146 339.63,95.3146 338.5,93.5C 343.102,98.1213 348.435,101.455 354.5,103.5C 355.568,104.434 356.901,104.768 358.5,104.5C 358.802,101.941 358.468,99.6074 357.5,97.5C 356.058,96.1805 355.392,94.5138 355.5,92.5 Z"/></g>
<g><path style="opacity:1" fill="#977676" d="M 357.5,97.5 C 358.468,99.6074 358.802,101.941 358.5,104.5C 356.901,104.768 355.568,104.434 354.5,103.5C 355.5,103.5 356.5,103.5 357.5,103.5C 357.5,101.5 357.5,99.5 357.5,97.5 Z"/></g>
<g><path style="opacity:1" fill="#9da6ab" d="M 340.5,99.5 C 342.975,100.687 343.975,102.687 343.5,105.5C 342.508,103.544 341.508,101.544 340.5,99.5 Z"/></g>
<g><path style="opacity:1" fill="#aed9fb" d="M 333.5,106.5 C 335.051,108.925 336.384,111.592 337.5,114.5C 335.833,113.167 334.167,113.167 332.5,114.5C 333.388,111.946 333.721,109.279 333.5,106.5 Z"/></g>
<g><path style="opacity:1" fill="#d2e7f9" d="M 55.5,113.5 C 58.3035,112.362 61.3035,112.195 64.5,113C 66.3237,113.66 67.657,114.827 68.5,116.5C 66.6854,115.37 64.6854,114.704 62.5,114.5C 60.3926,113.532 58.0593,113.198 55.5,113.5 Z"/></g>
<g><path style="opacity:1" fill="#e7e9eb" d="M 334.5,83.5 C 335.391,84.1098 336.391,84.4431 337.5,84.5C 337.19,87.7131 337.523,90.7131 338.5,93.5C 339.63,95.3146 340.296,97.3146 340.5,99.5C 341.508,101.544 342.508,103.544 343.5,105.5C 345.428,108.622 346.761,111.955 347.5,115.5C 349.219,123.381 349.886,131.381 349.5,139.5C 349.5,141.167 349.5,142.833 349.5,144.5C 348.833,149.167 348.167,153.833 347.5,158.5C 347.666,152.824 347.499,147.157 347,141.5C 346.333,140.167 345.667,138.833 345,137.5C 344.667,137.833 344.333,138.167 344,138.5C 343.933,141.047 343.099,143.214 341.5,145C 342.056,145.383 342.389,145.883 342.5,146.5C 341.503,146.53 340.836,146.03 340.5,145C 342.804,140.331 343.471,135.497 342.5,130.5C 341.831,132.631 341.165,134.631 340.5,136.5C 340.472,130.243 339.472,124.243 337.5,118.5C 339.173,119.343 340.34,120.676 341,122.5C 341.186,124.9 341.686,127.234 342.5,129.5C 343.652,126.894 343.818,124.227 343,121.5C 341.366,118.961 339.533,116.627 337.5,114.5C 336.384,111.592 335.051,108.925 333.5,106.5C 331.221,100.357 330.888,94.0238 332.5,87.5C 333.806,86.5326 334.473,85.1993 334.5,83.5 Z"/></g>
<g><path style="opacity:1" fill="#469ee5" d="M 62.5,114.5 C 64.6854,114.704 66.6854,115.37 68.5,116.5C 71.2427,118.239 73.2427,120.573 74.5,123.5C 74.0311,126.393 75.0311,128.393 77.5,129.5C 78.1049,132.127 78.6049,134.793 79,137.5C 79.3826,138.056 79.8826,138.389 80.5,138.5C 82.445,143.343 84.2784,148.343 86,153.5C 88.7287,156.976 90.8954,160.643 92.5,164.5C 92.149,167.812 93.4823,170.145 96.5,171.5C 96.5394,172.583 96.8728,173.583 97.5,174.5C 80.0263,178.041 63.693,184.208 48.5,193C 44,196.833 39.5,200.667 35,204.5C 32.9121,207.044 33.0787,209.377 35.5,211.5C 33.2843,210.797 31.451,209.464 30,207.5C 27.8873,202.716 26.5539,197.716 26,192.5C 23.7723,176.564 23.1057,160.564 24,144.5C 24.6946,142.278 25.5279,140.111 26.5,138C 26.2517,136.251 25.2517,135.418 23.5,135.5C 23.5,134.833 23.8333,134.5 24.5,134.5C 25.552,134.649 26.552,134.483 27.5,134C 30.1667,130 33.5,126.667 37.5,124C 45.3054,119.563 53.6388,116.396 62.5,114.5 Z"/></g>
<g><path style="opacity:1" fill="#8cc9fa" d="M 337.5,114.5 C 339.533,116.627 341.366,118.961 343,121.5C 343.818,124.227 343.652,126.894 342.5,129.5C 341.686,127.234 341.186,124.9 341,122.5C 340.34,120.676 339.173,119.343 337.5,118.5C 335.213,115.901 333.047,116.234 331,119.5C 328.791,122.789 327.958,126.456 328.5,130.5C 328.167,130.5 327.833,130.5 327.5,130.5C 325.031,123.907 326.698,118.574 332.5,114.5C 334.167,113.167 335.833,113.167 337.5,114.5 Z"/></g>
<g><path style="opacity:1" fill="#f4f6f7" d="M 337.5,118.5 C 339.472,124.243 340.472,130.243 340.5,136.5C 340.893,139.513 340.226,142.18 338.5,144.5C 337.833,144.5 337.5,144.833 337.5,145.5C 334.358,145.201 332.191,143.534 331,140.5C 330.467,137.071 329.633,133.738 328.5,130.5C 327.958,126.456 328.791,122.789 331,119.5C 333.047,116.234 335.213,115.901 337.5,118.5 Z"/></g>
<g><path style="opacity:1" fill="#60b4fb" d="M 55.5,113.5 C 58.0593,113.198 60.3926,113.532 62.5,114.5C 53.6388,116.396 45.3054,119.563 37.5,124C 33.5,126.667 30.1667,130 27.5,134C 26.552,134.483 25.552,134.649 24.5,134.5C 25.0427,131.962 26.0427,129.628 27.5,127.5C 29.3788,124.885 31.7121,122.719 34.5,121C 39.6511,118.924 44.6511,116.59 49.5,114C 51.4727,113.505 53.4727,113.338 55.5,113.5 Z"/></g>
<g><path style="opacity:1" fill="#87beed" d="M 74.5,123.5 C 76.0075,125.181 77.0075,127.181 77.5,129.5C 75.0311,128.393 74.0311,126.393 74.5,123.5 Z"/></g>
<g><path style="opacity:1" fill="#b5c8d6" d="M 423.5,127.5 C 422.432,128.434 421.099,128.768 419.5,128.5C 417.901,128.768 416.568,128.434 415.5,127.5C 418.197,126.37 420.863,126.37 423.5,127.5 Z"/></g>
<g><path style="opacity:1" fill="#3e505b" d="M 415.5,127.5 C 416.568,128.434 417.901,128.768 419.5,128.5C 418.375,130.129 417.041,131.629 415.5,133C 416.624,133.249 417.624,133.749 418.5,134.5C 413.134,138.505 407.134,140.672 400.5,141C 401.563,139.812 402.897,139.312 404.5,139.5C 404.5,138.5 404.5,137.5 404.5,136.5C 401.921,136.394 399.588,137.061 397.5,138.5C 401.725,135.623 405.725,132.29 409.5,128.5C 411.435,127.85 413.435,127.517 415.5,127.5 Z"/></g>
<g><path style="opacity:1" fill="#3e84be" d="M 428.5,135.5 C 427.262,137.214 426.595,139.214 426.5,141.5C 426.5,141.833 426.5,142.167 426.5,142.5C 426.274,146.1 424.608,148.766 421.5,150.5C 417.266,151.749 412.933,152.582 408.5,153C 405.86,155.621 405.86,158.121 408.5,160.5C 410.782,164.091 414.116,165.424 418.5,164.5C 418.706,167.495 418.04,170.162 416.5,172.5C 413.982,173.264 411.649,174.264 409.5,175.5C 406.728,175.759 404.395,176.759 402.5,178.5C 400.973,178.427 399.973,179.094 399.5,180.5C 394.882,181.872 390.215,183.372 385.5,185C 384.944,185.383 384.611,185.883 384.5,186.5C 381.432,187.916 378.266,189.25 375,190.5C 373.97,190.164 373.47,189.497 373.5,188.5C 374.912,184.693 376.745,181.026 379,177.5C 381.153,169.567 382.653,161.567 383.5,153.5C 383.963,150.779 384.629,148.112 385.5,145.5C 385.5,144.833 385.5,144.167 385.5,143.5C 389.526,141.827 393.526,140.16 397.5,138.5C 399.588,137.061 401.921,136.394 404.5,136.5C 404.5,137.5 404.5,138.5 404.5,139.5C 402.897,139.312 401.563,139.812 400.5,141C 407.134,140.672 413.134,138.505 418.5,134.5C 417.624,133.749 416.624,133.249 415.5,133C 417.041,131.629 418.375,130.129 419.5,128.5C 421.099,128.768 422.432,128.434 423.5,127.5C 425.905,126.232 428.572,125.565 431.5,125.5C 430.899,128.968 429.899,132.301 428.5,135.5 Z"/></g>
<g><path style="opacity:1" fill="#808e94" d="M 347.5,115.5 C 348.41,117.019 349.243,118.685 350,120.5C 350.82,127.014 350.653,133.347 349.5,139.5C 349.886,131.381 349.219,123.381 347.5,115.5 Z"/></g>
<g><path style="opacity:1" fill="#eff1f2" d="M 385.5,143.5 C 385.5,144.167 385.5,144.833 385.5,145.5C 383.345,147.617 382.345,150.284 382.5,153.5C 382.737,154.791 382.404,155.791 381.5,156.5C 379.277,157.114 377.611,158.448 376.5,160.5C 374.623,153.565 373.29,146.565 372.5,139.5C 373.283,136.224 374.283,132.891 375.5,129.5C 376.281,130.729 376.781,132.062 377,133.5C 380.419,136.412 383.252,139.746 385.5,143.5 Z"/></g>
<g><path style="opacity:1" fill="#bedbf5" d="M 77.5,129.5 C 79.554,132.008 80.554,135.008 80.5,138.5C 79.8826,138.389 79.3826,138.056 79,137.5C 78.6049,134.793 78.1049,132.127 77.5,129.5 Z"/></g>
<g><path style="opacity:1" fill="#a8d0f4" d="M 27.5,127.5 C 26.0427,129.628 25.0427,131.962 24.5,134.5C 23.8333,134.5 23.5,134.833 23.5,135.5C 22.8333,135.833 22.1667,136.167 21.5,136.5C 21.9085,132.427 23.9085,129.427 27.5,127.5 Z"/></g>
<g><path style="opacity:1" fill="#9aa5ab" d="M 228.5,135.5 C 226.315,135.704 224.315,136.37 222.5,137.5C 223.92,134.651 225.92,133.984 228.5,135.5 Z"/></g>
<g><path style="opacity:1" fill="#475b66" d="M 228.5,135.5 C 229.391,136.11 230.391,136.443 231.5,136.5C 231.973,137.906 232.973,138.573 234.5,138.5C 237.111,140.579 240.111,141.912 243.5,142.5C 243.586,143.496 243.252,144.329 242.5,145C 237.622,147.27 232.955,149.77 228.5,152.5C 221.281,154.895 214.614,158.229 208.5,162.5C 207.508,162.328 206.842,162.662 206.5,163.5C 203.911,163.461 201.911,164.461 200.5,166.5C 194.665,169.464 188.665,172.131 182.5,174.5C 178.541,169.576 174.207,169.243 169.5,173.5C 166.454,173.725 164.121,175.058 162.5,177.5C 158.566,178.816 154.899,180.483 151.5,182.5C 147.363,183.207 144.03,185.207 141.5,188.5C 140.833,188.5 140.167,188.5 139.5,188.5C 136.008,189.41 133.008,191.076 130.5,193.5C 130.167,193.5 129.833,193.5 129.5,193.5C 125.671,194.367 122.337,196.033 119.5,198.5C 116.833,199.833 114.167,201.167 111.5,202.5C 110.351,202.791 109.684,203.624 109.5,205C 109.667,205.833 109.833,206.667 110,207.5C 113.269,208.606 116.436,209.94 119.5,211.5C 119.833,211.5 120.167,211.5 120.5,211.5C 121.343,213.173 122.676,214.34 124.5,215C 127.351,216.608 130.351,217.274 133.5,217C 145.928,210.786 158.261,204.619 170.5,198.5C 172.389,197.62 174.389,197.62 176.5,198.5C 176.5,201.833 176.5,205.167 176.5,208.5C 176.5,210.5 176.5,212.5 176.5,214.5C 175.021,221.633 174.521,228.966 175,236.5C 175.417,237.756 176.25,238.423 177.5,238.5C 178.5,238.5 179.5,238.5 180.5,238.5C 184.909,237.465 189.242,236.132 193.5,234.5C 195.544,233.492 197.544,232.492 199.5,231.5C 203.606,228.465 207.939,225.798 212.5,223.5C 213.167,223.5 213.833,223.5 214.5,223.5C 215.404,224.209 215.737,225.209 215.5,226.5C 213.254,227.455 210.921,228.122 208.5,228.5C 207.916,231.285 208.916,232.952 211.5,233.5C 213.755,235.38 216.422,236.38 219.5,236.5C 226.985,233.77 234.318,230.437 241.5,226.5C 242.641,224.579 242.808,222.579 242,220.5C 239.965,217.439 238.799,214.105 238.5,210.5C 243.956,208.717 248.956,206.05 253.5,202.5C 254.222,202.082 254.722,201.416 255,200.5C 255.611,195.504 256.111,190.504 256.5,185.5C 257.117,185.389 257.617,185.056 258,184.5C 258.5,176.841 258.666,169.174 258.5,161.5C 258.89,158.203 259.89,155.203 261.5,152.5C 262.605,153.6 263.938,154.267 265.5,154.5C 272.04,158.018 278.707,161.351 285.5,164.5C 286.531,165.249 287.698,165.915 289,166.5C 289.171,174.011 289.671,181.345 290.5,188.5C 290.833,188.5 291.167,188.5 291.5,188.5C 291.334,192.514 291.501,196.514 292,200.5C 294.157,203.976 296.99,206.643 300.5,208.5C 290.613,213.081 280.613,217.581 270.5,222C 234.033,240.521 197.7,259.188 161.5,278C 158.568,278.272 156.068,279.438 154,281.5C 153.617,280.944 153.117,280.611 152.5,280.5C 116.95,263.392 81.6167,245.725 46.5,227.5C 47.6005,226.395 48.2671,225.062 48.5,223.5C 50.5739,222.486 52.5739,221.486 54.5,220.5C 57.3777,218.895 60.3777,217.561 63.5,216.5C 66.0772,216.545 68.0772,215.545 69.5,213.5C 69.8417,212.662 70.5084,212.328 71.5,212.5C 73.9674,212.245 75.9674,211.245 77.5,209.5C 80.1667,208.167 82.8333,206.833 85.5,205.5C 88.4965,204.73 91.1632,203.396 93.5,201.5C 98.8056,198.847 104.139,196.181 109.5,193.5C 112.435,192.886 115.268,191.886 118,190.5C 119.03,190.164 119.53,189.497 119.5,188.5C 119.842,187.662 120.508,187.328 121.5,187.5C 124.802,187.088 127.469,185.755 129.5,183.5C 130.514,182.326 131.847,181.66 133.5,181.5C 139.682,180.409 145.016,177.742 149.5,173.5C 150.873,173.657 152.207,173.49 153.5,173C 155.431,172.098 157.097,170.931 158.5,169.5C 160.261,168.687 161.928,167.687 163.5,166.5C 165.698,166.88 167.365,166.213 168.5,164.5C 168.973,163.094 169.973,162.427 171.5,162.5C 174.812,162.851 177.145,161.518 178.5,158.5C 178.833,158.5 179.167,158.5 179.5,158.5C 182.812,158.851 185.145,157.518 186.5,154.5C 186.833,154.5 187.167,154.5 187.5,154.5C 189.967,154.245 191.967,153.245 193.5,151.5C 197.103,149.36 200.77,147.193 204.5,145C 205.793,144.51 207.127,144.343 208.5,144.5C 211.1,143.532 213.434,142.199 215.5,140.5C 217.649,139.264 219.982,138.264 222.5,137.5C 224.315,136.37 226.315,135.704 228.5,135.5 Z"/></g>
<g><path style="opacity:1" fill="#a9b2b7" d="M 231.5,136.5 C 233.027,136.427 234.027,137.094 234.5,138.5C 232.973,138.573 231.973,137.906 231.5,136.5 Z"/></g>
<g><path style="opacity:1" fill="#a6b0b5" d="M 342.5,146.5 C 342.5,146.833 342.5,147.167 342.5,147.5C 341.127,147.657 339.793,147.49 338.5,147C 339.774,146.023 339.774,145.189 338.5,144.5C 340.226,142.18 340.893,139.513 340.5,136.5C 341.165,134.631 341.831,132.631 342.5,130.5C 343.471,135.497 342.804,140.331 340.5,145C 340.836,146.03 341.503,146.53 342.5,146.5 Z"/></g>
<g><path style="opacity:1" fill="#f8f8f9" d="M 329.5,147.5 C 329.5,148.5 329.5,149.5 329.5,150.5C 331.954,150.679 334.121,150.013 336,148.5C 338.319,149.871 340.819,150.538 343.5,150.5C 343.737,149.209 343.404,148.209 342.5,147.5C 342.5,147.167 342.5,146.833 342.5,146.5C 342.389,145.883 342.056,145.383 341.5,145C 343.099,143.214 343.933,141.047 344,138.5C 344.333,138.167 344.667,137.833 345,137.5C 345.667,138.833 346.333,140.167 347,141.5C 347.499,147.157 347.666,152.824 347.5,158.5C 347.5,163.833 347.5,169.167 347.5,174.5C 347.5,174.833 347.5,175.167 347.5,175.5C 346.503,195.66 346.17,215.993 346.5,236.5C 342.833,236.5 339.167,236.5 335.5,236.5C 328.326,232.663 320.659,229.996 312.5,228.5C 311.504,228.586 310.671,228.252 310,227.5C 309.502,224.183 309.335,220.85 309.5,217.5C 312.588,217.623 315.255,216.623 317.5,214.5C 319.536,208.727 318.536,203.727 314.5,199.5C 314.315,197.804 313.481,196.471 312,195.5C 311.009,188.686 311.509,182.02 313.5,175.5C 313.113,174.28 312.28,173.613 311,173.5C 309.56,174.148 308.06,174.481 306.5,174.5C 306.396,159.833 309.896,146.166 317,133.5C 317.893,132.289 318.726,132.289 319.5,133.5C 320.503,136.172 321.503,138.838 322.5,141.5C 319.802,147.046 317.302,152.713 315,158.5C 314.009,160.447 313.675,162.447 314,164.5C 317.252,159.666 320.252,154.666 323,149.5C 325.14,148.272 326.807,146.605 328,144.5C 329.039,145.244 329.539,146.244 329.5,147.5 Z"/></g>
<g><path style="opacity:1" fill="#8eafd1" d="M 428.5,135.5 C 428.5,137.5 428.5,139.5 428.5,141.5C 427.833,141.5 427.167,141.5 426.5,141.5C 426.595,139.214 427.262,137.214 428.5,135.5 Z"/></g>
<g><path style="opacity:1" fill="#7f8d94" d="M 215.5,140.5 C 213.434,142.199 211.1,143.532 208.5,144.5C 210.121,142.058 212.454,140.725 215.5,140.5 Z"/></g>
<g><path style="opacity:1" fill="#9faaaf" d="M 327.5,130.5 C 327.833,130.5 328.167,130.5 328.5,130.5C 329.633,133.738 330.467,137.071 331,140.5C 332.191,143.534 334.358,145.201 337.5,145.5C 336.329,146.345 334.995,147.011 333.5,147.5C 329.765,142.58 327.765,136.914 327.5,130.5 Z"/></g>
<g><path style="opacity:1" fill="#c0e2fe" d="M 260.5,151.5 C 259.414,151.62 258.747,152.287 258.5,153.5C 257.731,156.115 257.397,158.781 257.5,161.5C 257.5,163.5 257.5,165.5 257.5,167.5C 254.301,171.674 253.635,176.341 255.5,181.5C 254.731,188.496 254.065,195.496 253.5,202.5C 248.956,206.05 243.956,208.717 238.5,210.5C 237.226,207.24 235.56,204.24 233.5,201.5C 228.337,204.831 222.837,207.498 217,209.5C 216.127,209.265 215.293,208.931 214.5,208.5C 213.786,213.548 213.119,218.548 212.5,223.5C 207.939,225.798 203.606,228.465 199.5,231.5C 196.687,231.025 194.687,232.025 193.5,234.5C 189.242,236.132 184.909,237.465 180.5,238.5C 181.992,219.477 183.659,200.477 185.5,181.5C 183.678,177.641 181.678,177.641 179.5,181.5C 179.232,179.901 179.566,178.568 180.5,177.5C 183.967,178.441 187.301,178.275 190.5,177C 211.738,166.224 233.071,155.224 254.5,144C 256.134,143.506 257.801,143.34 259.5,143.5C 259.279,146.279 259.612,148.946 260.5,151.5 Z"/></g>
<g><path style="opacity:1" fill="#d4e8f8" d="M 265.5,154.5 C 263.938,154.267 262.605,153.6 261.5,152.5C 261.5,151.833 261.167,151.5 260.5,151.5C 259.612,148.946 259.279,146.279 259.5,143.5C 257.801,143.34 256.134,143.506 254.5,144C 233.071,155.224 211.738,166.224 190.5,177C 187.301,178.275 183.967,178.441 180.5,177.5C 181.167,176.5 181.833,175.5 182.5,174.5C 188.665,172.131 194.665,169.464 200.5,166.5C 202.967,166.245 204.967,165.245 206.5,163.5C 206.842,162.662 207.508,162.328 208.5,162.5C 215.775,160.196 222.442,156.863 228.5,152.5C 232.955,149.77 237.622,147.27 242.5,145C 243.252,144.329 243.586,143.496 243.5,142.5C 246.471,142.565 249.138,141.731 251.5,140C 259.792,138.43 263.292,141.93 262,150.5C 263.376,151.705 264.542,153.038 265.5,154.5 Z"/></g>
<g><path style="opacity:1" fill="#858f94" d="M 338.5,144.5 C 339.774,145.189 339.774,146.023 338.5,147C 339.793,147.49 341.127,147.657 342.5,147.5C 343.404,148.209 343.737,149.209 343.5,150.5C 340.819,150.538 338.319,149.871 336,148.5C 334.121,150.013 331.954,150.679 329.5,150.5C 329.5,149.5 329.5,148.5 329.5,147.5C 330.833,147.5 332.167,147.5 333.5,147.5C 334.995,147.011 336.329,146.345 337.5,145.5C 337.5,144.833 337.833,144.5 338.5,144.5 Z"/></g>
<g><path style="opacity:1" fill="#f0978e" d="M 426.5,142.5 C 427.805,144.397 428.471,146.731 428.5,149.5C 428.402,152.551 428.069,155.551 427.5,158.5C 425.025,161.241 422.025,163.241 418.5,164.5C 414.116,165.424 410.782,164.091 408.5,160.5C 408.318,158.409 408.652,156.409 409.5,154.5C 412.616,153.602 415.782,152.936 419,152.5C 420.376,152.316 421.209,151.649 421.5,150.5C 424.608,148.766 426.274,146.1 426.5,142.5 Z"/></g>
<g><path style="opacity:1" fill="#acc7dd" d="M 385.5,145.5 C 384.629,148.112 383.963,150.779 383.5,153.5C 383.167,153.5 382.833,153.5 382.5,153.5C 382.345,150.284 383.345,147.617 385.5,145.5 Z"/></g>
<g><path style="opacity:1" fill="#edb6b3" d="M 426.5,142.5 C 426.5,142.167 426.5,141.833 426.5,141.5C 427.167,141.5 427.833,141.5 428.5,141.5C 429.651,146.65 429.817,151.984 429,157.5C 428.617,158.056 428.117,158.389 427.5,158.5C 428.069,155.551 428.402,152.551 428.5,149.5C 428.471,146.731 427.805,144.397 426.5,142.5 Z"/></g>
<g><path style="opacity:1" fill="#5c99cc" d="M 21.5,137.5 C 21.0314,156.56 21.6981,175.56 23.5,194.5C 23.1667,194.5 22.8333,194.5 22.5,194.5C 21.5318,192.393 21.1984,190.059 21.5,187.5C 20.0528,173.548 19.3861,159.548 19.5,145.5C 19.5651,142.572 20.2318,139.905 21.5,137.5 Z"/></g>
<g><path style="opacity:1" fill="#c89298" d="M 421.5,150.5 C 421.209,151.649 420.376,152.316 419,152.5C 415.782,152.936 412.616,153.602 409.5,154.5C 408.652,156.409 408.318,158.409 408.5,160.5C 405.86,158.121 405.86,155.621 408.5,153C 412.933,152.582 417.266,151.749 421.5,150.5 Z"/></g>
<g><path style="opacity:1" fill="#8d999f" d="M 193.5,151.5 C 191.967,153.245 189.967,154.245 187.5,154.5C 189.033,152.755 191.033,151.755 193.5,151.5 Z"/></g>
<g><path style="opacity:1" fill="#c2daef" d="M 19.5,145.5 C 19.3861,159.548 20.0528,173.548 21.5,187.5C 20.7784,187.082 20.2784,186.416 20,185.5C 18.5155,172.016 18.3488,158.683 19.5,145.5 Z"/></g>
<g><path style="opacity:1" fill="#a5bcca" d="M 228.5,152.5 C 222.442,156.863 215.775,160.196 208.5,162.5C 214.614,158.229 221.281,154.895 228.5,152.5 Z"/></g>
<g><path style="opacity:1" fill="#828f96" d="M 186.5,154.5 C 185.145,157.518 182.812,158.851 179.5,158.5C 181.566,156.801 183.9,155.468 186.5,154.5 Z"/></g>
<g><path style="opacity:1" fill="#cad4db" d="M 372.5,134.5 C 372.5,136.167 372.5,137.833 372.5,139.5C 373.29,146.565 374.623,153.565 376.5,160.5C 377.611,158.448 379.277,157.114 381.5,156.5C 380.501,161.165 379.501,165.831 378.5,170.5C 377.1,169.9 376.1,168.9 375.5,167.5C 374.897,161.321 373.73,155.321 372,149.5C 371.184,144.316 371.35,139.316 372.5,134.5 Z"/></g>
<g><path style="opacity:1" fill="#9abbd1" d="M 260.5,151.5 C 261.167,151.5 261.5,151.833 261.5,152.5C 259.89,155.203 258.89,158.203 258.5,161.5C 258.167,161.5 257.833,161.5 257.5,161.5C 257.397,158.781 257.731,156.115 258.5,153.5C 258.747,152.287 259.414,151.62 260.5,151.5 Z"/></g>
<g><path style="opacity:1" fill="#7b8990" d="M 178.5,158.5 C 177.145,161.518 174.812,162.851 171.5,162.5C 173.808,161.207 176.142,159.874 178.5,158.5 Z"/></g>
<g><path style="opacity:1" fill="#78878e" d="M 168.5,164.5 C 167.365,166.213 165.698,166.88 163.5,166.5C 164.635,164.787 166.302,164.12 168.5,164.5 Z"/></g>
<g><path style="opacity:1" fill="#98afbd" d="M 206.5,163.5 C 204.967,165.245 202.967,166.245 200.5,166.5C 201.911,164.461 203.911,163.461 206.5,163.5 Z"/></g>
<g><path style="opacity:1" fill="#b0b9bd" d="M 349.5,144.5 C 349.167,154.5 348.833,164.5 348.5,174.5C 348.167,174.5 347.833,174.5 347.5,174.5C 347.5,169.167 347.5,163.833 347.5,158.5C 348.167,153.833 348.833,149.167 349.5,144.5 Z"/></g>
<g><path style="opacity:1" fill="#8cc2ef" d="M 92.5,164.5 C 93.7928,166.808 95.1261,169.142 96.5,171.5C 93.4823,170.145 92.149,167.812 92.5,164.5 Z"/></g>
<g><path style="opacity:1" fill="#abcde2" d="M 257.5,167.5 C 257.498,173.523 257.165,179.523 256.5,185.5C 256.111,190.504 255.611,195.504 255,200.5C 254.722,201.416 254.222,202.082 253.5,202.5C 254.065,195.496 254.731,188.496 255.5,181.5C 253.635,176.341 254.301,171.674 257.5,167.5 Z"/></g>
<g><path style="opacity:1" fill="#728d9c" d="M 257.5,161.5 C 257.833,161.5 258.167,161.5 258.5,161.5C 258.666,169.174 258.5,176.841 258,184.5C 257.617,185.056 257.117,185.389 256.5,185.5C 257.165,179.523 257.498,173.523 257.5,167.5C 257.5,165.5 257.5,163.5 257.5,161.5 Z"/></g>
<g><path style="opacity:1" fill="#95cefd" d="M 375.5,167.5 C 376.1,168.9 377.1,169.9 378.5,170.5C 375.774,176.159 374.108,182.159 373.5,188.5C 373.47,189.497 373.97,190.164 375,190.5C 378.266,189.25 381.432,187.916 384.5,186.5C 384.077,187.265 383.743,188.098 383.5,189C 385.944,198.945 388.61,208.778 391.5,218.5C 392.167,227.5 392.833,236.5 393.5,245.5C 393.5,246.5 393.5,247.5 393.5,248.5C 391.194,252.085 389.861,256.085 389.5,260.5C 387.058,265.718 384.891,271.051 383,276.5C 381.641,280.405 380.808,284.405 380.5,288.5C 379.1,289.1 378.1,290.1 377.5,291.5C 374.833,291.5 372.167,291.5 369.5,291.5C 369.667,277.163 369.5,262.829 369,248.5C 368.023,246.26 367.523,243.927 367.5,241.5C 368.41,243.019 369.243,244.685 370,246.5C 370.333,255.833 370.667,265.167 371,274.5C 373.15,267.358 374.316,260.024 374.5,252.5C 374.058,243.284 372.558,234.284 370,225.5C 366.056,214.727 362.889,203.727 360.5,192.5C 362.103,189.72 363.937,187.054 366,184.5C 366.692,183.563 366.525,182.897 365.5,182.5C 368.8,177.523 372.133,172.523 375.5,167.5 Z"/></g>
<g><path style="opacity:1" fill="#818f95" d="M 158.5,169.5 C 157.097,170.931 155.431,172.098 153.5,173C 152.207,173.49 150.873,173.657 149.5,173.5C 152.053,171.416 155.053,170.083 158.5,169.5 Z"/></g>
<g><path style="opacity:1" fill="#a6d6fd" d="M 375.5,167.5 C 372.133,172.523 368.8,177.523 365.5,182.5C 361.684,185.484 358.35,188.984 355.5,193C 360.838,208.846 364.838,225.012 367.5,241.5C 367.523,243.927 368.023,246.26 369,248.5C 369.5,262.829 369.667,277.163 369.5,291.5C 372.167,291.5 374.833,291.5 377.5,291.5C 377.5,291.833 377.5,292.167 377.5,292.5C 374.833,292.5 372.167,292.5 369.5,292.5C 369.5,295.5 369.5,298.5 369.5,301.5C 368.518,304.962 368.185,308.629 368.5,312.5C 367.539,314.265 367.205,316.265 367.5,318.5C 367.167,318.5 366.833,318.5 366.5,318.5C 362.566,319.36 358.566,319.693 354.5,319.5C 353.833,319.5 353.167,319.5 352.5,319.5C 349.678,309.553 346.845,299.553 344,289.5C 343.389,284.504 342.889,279.504 342.5,274.5C 343.091,266.323 343.091,258.323 342.5,250.5C 341.058,249.18 340.392,247.514 340.5,245.5C 340.682,243.409 340.348,241.409 339.5,239.5C 342.027,238.786 344.527,238.12 347,237.5C 347.5,216.836 347.667,196.169 347.5,175.5C 347.5,175.167 347.5,174.833 347.5,174.5C 347.833,174.5 348.167,174.5 348.5,174.5C 354.013,175.796 359.346,175.129 364.5,172.5C 368.344,171.2 372.011,169.533 375.5,167.5 Z"/></g>
<g><path style="opacity:1" fill="#f7f7f7" d="M 182.5,174.5 C 181.833,175.5 181.167,176.5 180.5,177.5C 179.566,178.568 179.232,179.901 179.5,181.5C 178.676,184.764 178.342,188.098 178.5,191.5C 163.908,199.131 149.241,206.798 134.5,214.5C 130.57,216.122 127.237,215.288 124.5,212C 123.207,211.51 121.873,211.343 120.5,211.5C 120.167,211.5 119.833,211.5 119.5,211.5C 119.5,210.5 119.5,209.5 119.5,208.5C 115.194,208.377 112.527,206.377 111.5,202.5C 114.167,201.167 116.833,199.833 119.5,198.5C 120.873,198.657 122.207,198.49 123.5,198C 125.664,196.509 127.664,195.009 129.5,193.5C 129.833,193.5 130.167,193.5 130.5,193.5C 131.873,193.657 133.207,193.49 134.5,193C 136.692,191.933 138.358,190.433 139.5,188.5C 140.167,188.5 140.833,188.5 141.5,188.5C 145.425,187.421 148.758,185.421 151.5,182.5C 154.899,180.483 158.566,178.816 162.5,177.5C 165.1,176.532 167.434,175.199 169.5,173.5C 174.207,169.243 178.541,169.576 182.5,174.5 Z"/></g>
<g><path style="opacity:1" fill="#528dc0" d="M 382.5,153.5 C 382.833,153.5 383.167,153.5 383.5,153.5C 382.653,161.567 381.153,169.567 379,177.5C 376.745,181.026 374.912,184.693 373.5,188.5C 374.108,182.159 375.774,176.159 378.5,170.5C 379.501,165.831 380.501,161.165 381.5,156.5C 382.404,155.791 382.737,154.791 382.5,153.5 Z"/></g>
<g><path style="opacity:1" fill="#80a5bf" d="M 364.5,172.5 C 359.346,175.129 354.013,175.796 348.5,174.5C 353.851,173.963 359.184,173.296 364.5,172.5 Z"/></g>
<g><path style="opacity:1" fill="#bfd5e9" d="M 416.5,172.5 C 414.91,174.821 412.577,175.821 409.5,175.5C 411.649,174.264 413.982,173.264 416.5,172.5 Z"/></g>
<g><path style="opacity:1" fill="#b1b9bd" d="M 169.5,173.5 C 167.434,175.199 165.1,176.532 162.5,177.5C 164.121,175.058 166.454,173.725 169.5,173.5 Z"/></g>
<g><path style="opacity:1" fill="#4faffd" d="M 96.5,171.5 C 98.2959,172.793 99.9625,174.293 101.5,176C 108.341,178.921 115.007,182.088 121.5,185.5C 121.5,186.167 121.5,186.833 121.5,187.5C 120.508,187.328 119.842,187.662 119.5,188.5C 115.701,189.421 112.368,191.088 109.5,193.5C 104.139,196.181 98.8056,198.847 93.5,201.5C 90.279,201.896 87.6123,203.229 85.5,205.5C 82.8333,206.833 80.1667,208.167 77.5,209.5C 75.0326,209.755 73.0326,210.755 71.5,212.5C 70.5084,212.328 69.8417,212.662 69.5,213.5C 67.0301,213.654 65.0301,214.654 63.5,216.5C 60.3777,217.561 57.3777,218.895 54.5,220.5C 52.8008,220.66 51.1341,220.494 49.5,220C 45.4541,217.92 41.4541,215.92 37.5,214C 36.6195,213.292 35.9528,212.458 35.5,211.5C 33.0787,209.377 32.9121,207.044 35,204.5C 39.5,200.667 44,196.833 48.5,193C 63.693,184.208 80.0263,178.041 97.5,174.5C 96.8728,173.583 96.5394,172.583 96.5,171.5 Z"/></g>
<g><path style="opacity:1" fill="#4e6069" d="M 309.5,194.5 C 307.806,193.473 306.473,192.139 305.5,190.5C 305.586,186.143 305.92,181.81 306.5,177.5C 306.821,175.952 307.821,175.285 309.5,175.5C 309.5,181.833 309.5,188.167 309.5,194.5 Z"/></g>
<g><path style="opacity:1" fill="#818f96" d="M 149.5,173.5 C 145.016,177.742 139.682,180.409 133.5,181.5C 138.702,178.65 144.035,175.983 149.5,173.5 Z"/></g>
<g><path style="opacity:1" fill="#8fb7d9" d="M 409.5,175.5 C 407.605,177.241 405.272,178.241 402.5,178.5C 404.395,176.759 406.728,175.759 409.5,175.5 Z"/></g>
<g><path style="opacity:1" fill="#a7d6fb" d="M 180.5,238.5 C 179.5,238.5 178.5,238.5 177.5,238.5C 176.533,230.586 176.199,222.586 176.5,214.5C 176.5,212.5 176.5,210.5 176.5,208.5C 177.521,204.02 178.187,199.353 178.5,194.5C 178.5,193.5 178.5,192.5 178.5,191.5C 178.342,188.098 178.676,184.764 179.5,181.5C 181.678,177.641 183.678,177.641 185.5,181.5C 183.659,200.477 181.992,219.477 180.5,238.5 Z"/></g>
<g><path style="opacity:1" fill="#959fa5" d="M 285.5,164.5 C 286.833,164.5 288.167,164.5 289.5,164.5C 290.467,172.414 290.801,180.414 290.5,188.5C 289.671,181.345 289.171,174.011 289,166.5C 287.698,165.915 286.531,165.249 285.5,164.5 Z"/></g>
<g><path style="opacity:1" fill="#a09ea2" d="M 306.5,177.5 C 305.92,181.81 305.586,186.143 305.5,190.5C 304.566,189.432 304.232,188.099 304.5,186.5C 304.215,183.171 304.882,180.171 306.5,177.5 Z"/></g>
<g><path style="opacity:1" fill="#778d9b" d="M 129.5,183.5 C 127.469,185.755 124.802,187.088 121.5,187.5C 121.5,186.833 121.5,186.167 121.5,185.5C 124.327,185.416 126.994,184.75 129.5,183.5 Z"/></g>
<g><path style="opacity:1" fill="#c5cbce" d="M 151.5,182.5 C 148.758,185.421 145.425,187.421 141.5,188.5C 144.03,185.207 147.363,183.207 151.5,182.5 Z"/></g>
<g><path style="opacity:1" fill="#c6dcee" d="M 347.5,175.5 C 347.667,196.169 347.5,216.836 347,237.5C 344.527,238.12 342.027,238.786 339.5,239.5C 340.348,241.409 340.682,243.409 340.5,245.5C 339.065,244.21 338.065,242.544 337.5,240.5C 336.833,260.329 336.167,279.996 335.5,299.5C 335.5,278.5 335.5,257.5 335.5,236.5C 339.167,236.5 342.833,236.5 346.5,236.5C 346.17,215.993 346.503,195.66 347.5,175.5 Z"/></g>
<g><path style="opacity:1" fill="#afcce6" d="M 399.5,180.5 C 394.929,183.253 389.929,185.253 384.5,186.5C 384.611,185.883 384.944,185.383 385.5,185C 390.215,183.372 394.882,181.872 399.5,180.5 Z"/></g>
<g><path style="opacity:1" fill="#5bb4ff" d="M 220.5,185.5 C 221.833,185.5 223.167,185.5 224.5,185.5C 224.779,191.885 221.779,195.552 215.5,196.5C 214.965,191.737 216.632,188.071 220.5,185.5 Z"/></g>
<g><path style="opacity:1" fill="#f2978d" d="M 304.5,186.5 C 304.232,188.099 304.566,189.432 305.5,190.5C 306.473,192.139 307.806,193.473 309.5,194.5C 310.785,196.452 312.451,198.118 314.5,199.5C 318.536,203.727 319.536,208.727 317.5,214.5C 315.255,216.623 312.588,217.623 309.5,217.5C 306.645,215.494 304.479,212.828 303,209.5C 302.329,208.748 301.496,208.414 300.5,208.5C 296.99,206.643 294.157,203.976 292,200.5C 291.501,196.514 291.334,192.514 291.5,188.5C 296.036,188.85 300.369,188.183 304.5,186.5 Z"/></g>
<g><path style="opacity:1" fill="#4087c3" d="M 23.5,135.5 C 25.2517,135.418 26.2517,136.251 26.5,138C 25.5279,140.111 24.6946,142.278 24,144.5C 23.1057,160.564 23.7723,176.564 26,192.5C 26.5539,197.716 27.8873,202.716 30,207.5C 31.451,209.464 33.2843,210.797 35.5,211.5C 35.9528,212.458 36.6195,213.292 37.5,214C 41.4541,215.92 45.4541,217.92 49.5,220C 51.1341,220.494 52.8008,220.66 54.5,220.5C 52.5739,221.486 50.5739,222.486 48.5,223.5C 48.1667,223.5 47.8333,223.5 47.5,223.5C 45.9891,222.498 44.3224,221.831 42.5,221.5C 41.791,220.596 40.791,220.263 39.5,220.5C 37.0468,217.644 34.0468,215.311 30.5,213.5C 28.0593,211.074 26.0593,208.407 24.5,205.5C 23.8857,201.865 23.5524,198.198 23.5,194.5C 21.6981,175.56 21.0314,156.56 21.5,137.5C 21.5,137.167 21.5,136.833 21.5,136.5C 22.1667,136.167 22.8333,135.833 23.5,135.5 Z"/></g>
<g><path style="opacity:1" fill="#497696" d="M 119.5,188.5 C 119.53,189.497 119.03,190.164 118,190.5C 115.268,191.886 112.435,192.886 109.5,193.5C 112.368,191.088 115.701,189.421 119.5,188.5 Z"/></g>
<g><path style="opacity:1" fill="#cdd2d5" d="M 139.5,188.5 C 138.358,190.433 136.692,191.933 134.5,193C 133.207,193.49 131.873,193.657 130.5,193.5C 133.008,191.076 136.008,189.41 139.5,188.5 Z"/></g>
<g><path style="opacity:1" fill="#b4bdc0" d="M 129.5,193.5 C 127.664,195.009 125.664,196.509 123.5,198C 122.207,198.49 120.873,198.657 119.5,198.5C 122.337,196.033 125.671,194.367 129.5,193.5 Z"/></g>
<g><path style="opacity:1" fill="#607581" d="M 178.5,194.5 C 178.187,199.353 177.521,204.02 176.5,208.5C 176.5,205.167 176.5,201.833 176.5,198.5C 174.389,197.62 172.389,197.62 170.5,198.5C 172.837,196.604 175.504,195.27 178.5,194.5 Z"/></g>
<g><path style="opacity:1" fill="#c1d9ee" d="M 22.5,194.5 C 22.8333,194.5 23.1667,194.5 23.5,194.5C 23.5524,198.198 23.8857,201.865 24.5,205.5C 22.783,202.155 22.1164,198.489 22.5,194.5 Z"/></g>
<g><path style="opacity:1" fill="#497fa5" d="M 93.5,201.5 C 91.1632,203.396 88.4965,204.73 85.5,205.5C 87.6123,203.229 90.279,201.896 93.5,201.5 Z"/></g>
<g><path style="opacity:1" fill="#a5d4fb" d="M 238.5,210.5 C 238.799,214.105 239.965,217.439 242,220.5C 242.808,222.579 242.641,224.579 241.5,226.5C 234.318,230.437 226.985,233.77 219.5,236.5C 218.917,227.845 218.584,219.178 218.5,210.5C 217.5,210.5 216.5,210.5 215.5,210.5C 215.769,214.931 215.436,219.265 214.5,223.5C 213.833,223.5 213.167,223.5 212.5,223.5C 213.119,218.548 213.786,213.548 214.5,208.5C 215.293,208.931 216.127,209.265 217,209.5C 222.837,207.498 228.337,204.831 233.5,201.5C 235.56,204.24 237.226,207.24 238.5,210.5 Z"/></g>
<g><path style="opacity:1" fill="#d0d2d3" d="M 111.5,202.5 C 112.527,206.377 115.194,208.377 119.5,208.5C 119.5,209.5 119.5,210.5 119.5,211.5C 116.436,209.94 113.269,208.606 110,207.5C 109.833,206.667 109.667,205.833 109.5,205C 109.684,203.624 110.351,202.791 111.5,202.5 Z"/></g>
<g><path style="opacity:1" fill="#cad0d2" d="M 102.5,212.5 C 98.5,211.833 94.5,211.167 90.5,210.5C 90.9623,209.12 91.9623,208.453 93.5,208.5C 96.9655,209.087 99.9655,210.421 102.5,212.5 Z"/></g>
<g><path style="opacity:1" fill="#384850" d="M 300.5,208.5 C 301.496,208.414 302.329,208.748 303,209.5C 304.479,212.828 306.645,215.494 309.5,217.5C 309.335,220.85 309.502,224.183 310,227.5C 310.671,228.252 311.504,228.586 312.5,228.5C 314.112,230.333 315.778,232 317.5,233.5C 315.302,233.12 313.635,233.787 312.5,235.5C 310.62,235.229 309.287,235.896 308.5,237.5C 306.847,237.66 305.514,238.326 304.5,239.5C 302.033,239.755 300.033,240.755 298.5,242.5C 296.012,243.688 293.678,245.021 291.5,246.5C 286.738,247.716 282.405,249.716 278.5,252.5C 276.847,252.66 275.514,253.326 274.5,254.5C 270.912,255.798 267.579,257.464 264.5,259.5C 262.033,259.755 260.033,260.755 258.5,262.5C 257.833,262.5 257.5,262.833 257.5,263.5C 254.454,263.725 252.121,265.058 250.5,267.5C 247.687,267.025 245.687,268.025 244.5,270.5C 243.833,270.5 243.167,270.5 242.5,270.5C 240.973,270.427 239.973,271.094 239.5,272.5C 239.167,272.5 238.833,272.5 238.5,272.5C 235.9,273.468 233.566,274.801 231.5,276.5C 228.594,277.108 226.26,278.441 224.5,280.5C 223.833,280.5 223.167,280.5 222.5,280.5C 220.973,280.427 219.973,281.094 219.5,282.5C 216.455,283.279 213.789,284.613 211.5,286.5C 201.883,290.642 192.55,295.308 183.5,300.5C 180.563,301.472 177.897,302.805 175.5,304.5C 173.847,304.66 172.514,305.326 171.5,306.5C 169.033,306.755 167.033,307.755 165.5,309.5C 163.534,310.441 161.534,311.441 159.5,312.5C 158.5,337.825 158.167,363.158 158.5,388.5C 157.609,389.11 156.609,389.443 155.5,389.5C 154.5,389.5 153.5,389.5 152.5,389.5C 152.5,353.167 152.5,316.833 152.5,280.5C 153.117,280.611 153.617,280.944 154,281.5C 156.068,279.438 158.568,278.272 161.5,278C 197.7,259.188 234.033,240.521 270.5,222C 280.613,217.581 290.613,213.081 300.5,208.5 Z"/></g>
<g><path style="opacity:1" fill="#f7f8f8" d="M 90.5,210.5 C 94.5,211.167 98.5,211.833 102.5,212.5C 104.033,214.245 106.033,215.245 108.5,215.5C 109.167,215.833 109.833,216.167 110.5,216.5C 112.566,218.199 114.9,219.532 117.5,220.5C 122.822,223.161 128.156,225.828 133.5,228.5C 132.432,230.74 130.766,232.574 128.5,234C 120.311,237.596 112.311,241.429 104.5,245.5C 92.1795,239.232 79.8461,233.065 67.5,227C 66.1772,226.184 65.5106,225.017 65.5,223.5C 68.9154,222.805 71.5821,221.138 73.5,218.5C 78.7041,215.067 84.3708,212.4 90.5,210.5 Z"/></g>
<g><path style="opacity:1" fill="#4a84ad" d="M 77.5,209.5 C 75.9674,211.245 73.9674,212.245 71.5,212.5C 73.0326,210.755 75.0326,209.755 77.5,209.5 Z"/></g>
<g><path style="opacity:1" fill="#d6d7d8" d="M 178.5,191.5 C 178.5,192.5 178.5,193.5 178.5,194.5C 175.504,195.27 172.837,196.604 170.5,198.5C 158.261,204.619 145.928,210.786 133.5,217C 130.351,217.274 127.351,216.608 124.5,215C 122.676,214.34 121.343,213.173 120.5,211.5C 121.873,211.343 123.207,211.51 124.5,212C 127.237,215.288 130.57,216.122 134.5,214.5C 149.241,206.798 163.908,199.131 178.5,191.5 Z"/></g>
<g><path style="opacity:1" fill="#94797f" d="M 166.5,210.5 C 167.708,209.218 169.042,209.218 170.5,210.5C 169.995,211.919 168.995,212.585 167.5,212.5C 167.672,211.508 167.338,210.842 166.5,210.5 Z"/></g>
<g><path style="opacity:1" fill="#86939a" d="M 102.5,212.5 C 104.967,212.755 106.967,213.755 108.5,215.5C 106.033,215.245 104.033,214.245 102.5,212.5 Z"/></g>
<g><path style="opacity:1" fill="#4b94ce" d="M 166.5,210.5 C 167.338,210.842 167.672,211.508 167.5,212.5C 167.631,213.376 167.298,214.043 166.5,214.5C 160.983,216.449 155.65,218.782 150.5,221.5C 150.443,220.391 150.11,219.391 149.5,218.5C 155.065,215.686 160.732,213.02 166.5,210.5 Z"/></g>
<g><path style="opacity:1" fill="#4a7a9d" d="M 69.5,213.5 C 68.0772,215.545 66.0772,216.545 63.5,216.5C 65.0301,214.654 67.0301,213.654 69.5,213.5 Z"/></g>
<g><path style="opacity:1" fill="#929ea4" d="M 110.5,216.5 C 113.546,216.725 115.879,218.058 117.5,220.5C 114.9,219.532 112.566,218.199 110.5,216.5 Z"/></g>
<g><path style="opacity:1" fill="#b7bfc2" d="M 73.5,218.5 C 71.5821,221.138 68.9154,222.805 65.5,223.5C 64.2584,225.389 64.2584,227.389 65.5,229.5C 64.0047,229.585 63.0047,228.919 62.5,227.5C 64.2872,222.412 67.9538,219.412 73.5,218.5 Z"/></g>
<g><path style="opacity:1" fill="#82a5c5" d="M 149.5,218.5 C 150.11,219.391 150.443,220.391 150.5,221.5C 149.791,222.404 148.791,222.737 147.5,222.5C 147.5,221.167 146.833,220.5 145.5,220.5C 146.514,219.326 147.847,218.66 149.5,218.5 Z"/></g>
<g><path style="opacity:1" fill="#eceff0" d="M 42.5,221.5 C 44.3224,221.831 45.9891,222.498 47.5,223.5C 46.8783,224.627 46.045,225.627 45,226.5C 44.5007,231.489 44.3341,236.489 44.5,241.5C 39.1608,246.506 33.8275,251.506 28.5,256.5C 28.1667,255.833 27.8333,255.167 27.5,254.5C 32.5364,243.48 37.5364,232.48 42.5,221.5 Z"/></g>
<g><path style="opacity:1" fill="#c17e80" d="M 145.5,220.5 C 146.833,220.5 147.5,221.167 147.5,222.5C 146.7,224.741 145.034,225.741 142.5,225.5C 141.916,222.715 142.916,221.048 145.5,220.5 Z"/></g>
<g><path style="opacity:1" fill="#488ac0" d="M 215.5,226.5 C 215.5,228.167 215.5,229.833 215.5,231.5C 213.278,231.822 211.444,231.155 210,229.5C 209.7,231.066 210.2,232.399 211.5,233.5C 208.916,232.952 207.916,231.285 208.5,228.5C 210.921,228.122 213.254,227.455 215.5,226.5 Z"/></g>
<g><path style="opacity:1" fill="#283439" d="M 46.5,227.5 C 81.6167,245.725 116.95,263.392 152.5,280.5C 152.5,316.833 152.5,353.167 152.5,389.5C 151.178,389.67 150.011,389.337 149,388.5C 148.832,362.997 148.332,337.663 147.5,312.5C 144.982,311.736 142.649,310.736 140.5,309.5C 137.578,306.393 133.911,304.393 129.5,303.5C 126.515,302.674 123.849,301.341 121.5,299.5C 118.663,297.033 115.329,295.367 111.5,294.5C 111.027,293.094 110.027,292.427 108.5,292.5C 104.967,291.626 101.634,290.293 98.5,288.5C 98.0269,287.094 97.0269,286.427 95.5,286.5C 94.5084,286.672 93.8417,286.338 93.5,285.5C 92.3285,284.655 90.9952,283.989 89.5,283.5C 89.5,282.833 89.1667,282.5 88.5,282.5C 86.9724,281.691 85.3057,281.024 83.5,280.5C 83.1667,280.5 82.8333,280.5 82.5,280.5C 77.8333,277.833 73.1667,275.167 68.5,272.5C 65.958,270.581 63.2913,268.748 60.5,267C 58.6131,266.22 56.9464,266.387 55.5,267.5C 55.8308,290.339 55.4975,313.006 54.5,335.5C 53.2997,312.16 53.2997,288.827 54.5,265.5C 53.1667,265.5 51.8333,265.5 50.5,265.5C 50.5,289.167 50.5,312.833 50.5,336.5C 51.5,336.5 52.5,336.5 53.5,336.5C 53.5,337.167 53.1667,337.5 52.5,337.5C 49.9556,337.896 47.7889,337.229 46,335.5C 45.8324,305.664 45.3324,275.997 44.5,246.5C 43.438,244.901 43.438,243.234 44.5,241.5C 45.1667,236.833 45.8333,232.167 46.5,227.5 Z"/></g>
<g><path style="opacity:1" fill="#6d8a99" d="M 199.5,231.5 C 197.544,232.492 195.544,233.492 193.5,234.5C 194.687,232.025 196.687,231.025 199.5,231.5 Z"/></g>
<g><path style="opacity:1" fill="#7cc0f7" d="M 219.5,236.5 C 216.422,236.38 213.755,235.38 211.5,233.5C 210.2,232.399 209.7,231.066 210,229.5C 211.444,231.155 213.278,231.822 215.5,231.5C 215.5,229.833 215.5,228.167 215.5,226.5C 215.737,225.209 215.404,224.209 214.5,223.5C 215.436,219.265 215.769,214.931 215.5,210.5C 216.5,210.5 217.5,210.5 218.5,210.5C 218.584,219.178 218.917,227.845 219.5,236.5 Z"/></g>
<g><path style="opacity:1" fill="#b9dfff" d="M 391.5,218.5 C 393.116,225.437 394.116,232.604 394.5,240C 394.494,242.033 394.161,243.866 393.5,245.5C 392.833,236.5 392.167,227.5 391.5,218.5 Z"/></g>
<g><path style="opacity:1" fill="#50adf7" d="M 152.5,235.5 C 153.15,235.804 153.817,236.137 154.5,236.5C 155.288,235.23 156.288,234.23 157.5,233.5C 158.496,233.414 159.329,233.748 160,234.5C 160.497,236.81 160.663,239.143 160.5,241.5C 162.39,241.703 163.89,241.037 165,239.5C 165.609,242.065 165.109,244.399 163.5,246.5C 162.833,247.5 162.167,248.5 161.5,249.5C 160.5,250.167 159.5,250.833 158.5,251.5C 155.482,251.665 152.482,251.498 149.5,251C 148.529,249.519 147.196,248.685 145.5,248.5C 145.19,246.856 144.19,245.856 142.5,245.5C 142.201,243.396 142.534,241.396 143.5,239.5C 144.183,239.863 144.85,240.196 145.5,240.5C 146.209,241.404 147.209,241.737 148.5,241.5C 148.104,238.518 148.771,235.851 150.5,233.5C 151.182,234.243 151.849,234.909 152.5,235.5 Z"/></g>
<g><path style="opacity:1" fill="#8bb5d3" d="M 176.5,214.5 C 176.199,222.586 176.533,230.586 177.5,238.5C 176.25,238.423 175.417,237.756 175,236.5C 174.521,228.966 175.021,221.633 176.5,214.5 Z"/></g>
<g><path style="opacity:1" fill="#a1a8ac" d="M 317.5,233.5 C 316.07,234.537 314.403,235.204 312.5,235.5C 313.635,233.787 315.302,233.12 317.5,233.5 Z"/></g>
<g><path style="opacity:1" fill="#7c878c" d="M 47.5,223.5 C 47.8333,223.5 48.1667,223.5 48.5,223.5C 48.2671,225.062 47.6005,226.395 46.5,227.5C 45.8333,232.167 45.1667,236.833 44.5,241.5C 44.3341,236.489 44.5007,231.489 45,226.5C 46.045,225.627 46.8783,224.627 47.5,223.5 Z"/></g>
<g><path style="opacity:1" fill="#dfe0e0" d="M 65.5,223.5 C 65.5106,225.017 66.1772,226.184 67.5,227C 79.8461,233.065 92.1795,239.232 104.5,245.5C 112.311,241.429 120.311,237.596 128.5,234C 130.766,232.574 132.432,230.74 133.5,228.5C 134.376,228.369 135.043,228.702 135.5,229.5C 134.966,231.614 133.966,233.448 132.5,235C 127.273,237.23 122.273,239.73 117.5,242.5C 114.9,243.468 112.566,244.801 110.5,246.5C 106.94,248.805 103.273,248.972 99.5,247C 88.2795,240.876 76.9462,235.043 65.5,229.5C 64.2584,227.389 64.2584,225.389 65.5,223.5 Z"/></g>
<g><path style="opacity:1" fill="#4c94c8" d="M 152.5,235.5 C 151.849,234.909 151.182,234.243 150.5,233.5C 148.771,235.851 148.104,238.518 148.5,241.5C 147.209,241.737 146.209,241.404 145.5,240.5C 147.22,238.342 148.053,235.675 148,232.5C 149.356,231.62 150.856,231.286 152.5,231.5C 152.5,232.833 152.5,234.167 152.5,235.5 Z"/></g>
<g><path style="opacity:1" fill="#929b9f" d="M 312.5,235.5 C 311.486,236.674 310.153,237.34 308.5,237.5C 309.287,235.896 310.62,235.229 312.5,235.5 Z"/></g>
<g><path style="opacity:1" fill="#273339" d="M 328.5,236.5 C 328.833,236.5 329.167,236.5 329.5,236.5C 329.5,257.5 329.5,278.5 329.5,299.5C 328.5,299.5 327.5,299.5 326.5,299.5C 325.845,278.14 326.511,257.14 328.5,236.5 Z"/></g>
<g><path style="opacity:1" fill="#3d4c54" d="M 329.5,236.5 C 331.5,236.5 333.5,236.5 335.5,236.5C 335.5,257.5 335.5,278.5 335.5,299.5C 333.516,300.156 331.516,300.822 329.5,301.5C 327.962,301.547 326.962,300.88 326.5,299.5C 327.5,299.5 328.5,299.5 329.5,299.5C 329.5,278.5 329.5,257.5 329.5,236.5 Z"/></g>
<g><path style="opacity:1" fill="#4f8bb6" d="M 157.5,233.5 C 158.542,232.209 159.708,232.209 161,233.5C 161.333,235.833 161.667,238.167 162,240.5C 163.264,238.393 165.097,237.393 167.5,237.5C 167.244,240.598 166.578,243.598 165.5,246.5C 164.833,246.5 164.167,246.5 163.5,246.5C 165.109,244.399 165.609,242.065 165,239.5C 163.89,241.037 162.39,241.703 160.5,241.5C 160.663,239.143 160.497,236.81 160,234.5C 159.329,233.748 158.496,233.414 157.5,233.5 Z"/></g>
<g><path style="opacity:1" fill="#969fa2" d="M 304.5,239.5 C 302.967,241.245 300.967,242.245 298.5,242.5C 300.033,240.755 302.033,239.755 304.5,239.5 Z"/></g>
<g><path style="opacity:1" fill="#808b90" d="M 117.5,242.5 C 115.879,244.942 113.546,246.275 110.5,246.5C 112.566,244.801 114.9,243.468 117.5,242.5 Z"/></g>
<g><path style="opacity:1" fill="#74a1c6" d="M 365.5,182.5 C 366.525,182.897 366.692,183.563 366,184.5C 363.937,187.054 362.103,189.72 360.5,192.5C 362.889,203.727 366.056,214.727 370,225.5C 372.558,234.284 374.058,243.284 374.5,252.5C 374.316,260.024 373.15,267.358 371,274.5C 370.667,265.167 370.333,255.833 370,246.5C 369.243,244.685 368.41,243.019 367.5,241.5C 364.838,225.012 360.838,208.846 355.5,193C 358.35,188.984 361.684,185.484 365.5,182.5 Z"/></g>
<g><path style="opacity:1" fill="#e0e2e2" d="M 312.5,228.5 C 320.659,229.996 328.326,232.663 335.5,236.5C 333.5,236.5 331.5,236.5 329.5,236.5C 329.167,236.5 328.833,236.5 328.5,236.5C 327.432,235.566 326.099,235.232 324.5,235.5C 324.5,256.5 324.5,277.5 324.5,298.5C 323.503,277.006 323.169,255.34 323.5,233.5C 321.5,233.5 319.5,233.5 317.5,233.5C 315.778,232 314.112,230.333 312.5,228.5 Z"/></g>
<g><path style="opacity:1" fill="#5a6266" d="M 328.5,236.5 C 326.511,257.14 325.845,278.14 326.5,299.5C 325.833,299.167 325.167,298.833 324.5,298.5C 324.5,277.5 324.5,256.5 324.5,235.5C 326.099,235.232 327.432,235.566 328.5,236.5 Z"/></g>
<g><path style="opacity:1" fill="#79878f" d="M 167.5,247.5 C 168.117,247.611 168.617,247.944 169,248.5C 169.167,249.833 169.333,251.167 169.5,252.5C 169.415,254.333 168.748,255.666 167.5,256.5C 167.5,253.5 167.5,250.5 167.5,247.5 Z"/></g>
<g><path style="opacity:1" fill="#bcc2c4" d="M 291.5,246.5 C 287.839,249.829 283.506,251.829 278.5,252.5C 282.405,249.716 286.738,247.716 291.5,246.5 Z"/></g>
<g><path style="opacity:1" fill="#f0f2f3" d="M 142.5,245.5 C 144.19,245.856 145.19,246.856 145.5,248.5C 146.29,249.794 147.29,250.961 148.5,252C 152.027,252.808 155.36,252.641 158.5,251.5C 159.5,250.833 160.5,250.167 161.5,249.5C 163.017,249.489 164.184,248.823 165,247.5C 166.741,249.541 166.908,251.708 165.5,254C 157.766,258.269 149.766,258.602 141.5,255C 140.565,252.619 140.232,250.119 140.5,247.5C 141.167,246.833 141.833,246.167 142.5,245.5 Z"/></g>
<g><path style="opacity:1" fill="#e2e3e4" d="M 163.5,246.5 C 164.167,246.5 164.833,246.5 165.5,246.5C 166.167,246.833 166.833,247.167 167.5,247.5C 167.5,250.5 167.5,253.5 167.5,256.5C 167.381,261.456 165.048,264.956 160.5,267C 150.946,270.056 144.113,267.223 140,258.5C 139.19,254.642 139.357,250.976 140.5,247.5C 140.232,250.119 140.565,252.619 141.5,255C 149.766,258.602 157.766,258.269 165.5,254C 166.908,251.708 166.741,249.541 165,247.5C 164.184,248.823 163.017,249.489 161.5,249.5C 162.167,248.5 162.833,247.5 163.5,246.5 Z"/></g>
<g><path style="opacity:1" fill="#7fbff4" d="M 145.5,248.5 C 147.196,248.685 148.529,249.519 149.5,251C 152.482,251.498 155.482,251.665 158.5,251.5C 155.36,252.641 152.027,252.808 148.5,252C 147.29,250.961 146.29,249.794 145.5,248.5 Z"/></g>
<g><path style="opacity:1" fill="#d9edff" d="M 393.5,248.5 C 393.139,252.915 391.806,256.915 389.5,260.5C 389.861,256.085 391.194,252.085 393.5,248.5 Z"/></g>
<g><path style="opacity:1" fill="#61737c" d="M 39.5,220.5 C 40.791,220.263 41.791,220.596 42.5,221.5C 37.5364,232.48 32.5364,243.48 27.5,254.5C 27.8333,255.167 28.1667,255.833 28.5,256.5C 33.8275,251.506 39.1608,246.506 44.5,241.5C 43.438,243.234 43.438,244.901 44.5,246.5C 42.5956,246.738 41.2623,247.738 40.5,249.5C 35.125,254.509 29.7917,259.509 24.5,264.5C 23.8333,264.833 23.1667,265.167 22.5,265.5C 21.5,265.5 20.5,265.5 19.5,265.5C 25.4127,250.069 32.0793,235.069 39.5,220.5 Z"/></g>
<g><path style="opacity:1" fill="#c0c5c8" d="M 274.5,254.5 C 272.202,258.054 268.868,259.721 264.5,259.5C 267.579,257.464 270.912,255.798 274.5,254.5 Z"/></g>
<g><path style="opacity:1" fill="#8c959a" d="M 264.5,259.5 C 262.967,261.245 260.967,262.245 258.5,262.5C 260.033,260.755 262.033,259.755 264.5,259.5 Z"/></g>
<g><path style="opacity:1" fill="#cbdeed" d="M 24.5,264.5 C 22.5368,268.732 20.2034,272.732 17.5,276.5C 18.3638,272.441 20.0305,268.774 22.5,265.5C 23.1667,265.167 23.8333,264.833 24.5,264.5 Z"/></g>
<g><path style="opacity:1" fill="#afb5b9" d="M 257.5,263.5 C 255.434,265.199 253.1,266.532 250.5,267.5C 252.121,265.058 254.454,263.725 257.5,263.5 Z"/></g>
<g><path style="opacity:1" fill="#c6ddf0" d="M 342.5,250.5 C 343.091,258.323 343.091,266.323 342.5,274.5C 341.48,266.662 341.48,258.662 342.5,250.5 Z"/></g>
<g><path style="opacity:1" fill="#070708" d="M 54.5,335.5 C 54.5,336.167 54.1667,336.5 53.5,336.5C 52.5,336.5 51.5,336.5 50.5,336.5C 50.5,312.833 50.5,289.167 50.5,265.5C 51.8333,265.5 53.1667,265.5 54.5,265.5C 53.2997,288.827 53.2997,312.16 54.5,335.5 Z"/></g>
<g><path style="opacity:1" fill="#5c6569" d="M 55.5,267.5 C 56.9464,266.387 58.6131,266.22 60.5,267C 63.2913,268.748 65.958,270.581 68.5,272.5C 65.1268,271.934 62.1268,270.601 59.5,268.5C 58.4324,267.566 57.099,267.232 55.5,267.5 Z"/></g>
<g><path style="opacity:1" fill="#ced1d1" d="M 44.5,246.5 C 44.5,276.167 44.5,305.833 44.5,335.5C 43.6677,306.67 43.1677,277.67 43,248.5C 42.3292,249.252 41.4959,249.586 40.5,249.5C 41.2623,247.738 42.5956,246.738 44.5,246.5 Z"/></g>
<g><path style="opacity:1" fill="#c5c9cb" d="M 250.5,267.5 C 248.967,269.245 246.967,270.245 244.5,270.5C 245.687,268.025 247.687,267.025 250.5,267.5 Z"/></g>
<g><path style="opacity:1" fill="#979fa3" d="M 242.5,270.5 C 242.027,271.906 241.027,272.573 239.5,272.5C 239.973,271.094 240.973,270.427 242.5,270.5 Z"/></g>
<g><path style="opacity:1" fill="#66b1ef" d="M 19.5,265.5 C 20.5,265.5 21.5,265.5 22.5,265.5C 20.0305,268.774 18.3638,272.441 17.5,276.5C 16.5028,276.53 15.8361,276.03 15.5,275C 16.3617,271.566 17.695,268.4 19.5,265.5 Z"/></g>
<g><path style="opacity:1" fill="#c3c8ca" d="M 238.5,272.5 C 237.145,275.518 234.812,276.851 231.5,276.5C 233.566,274.801 235.9,273.468 238.5,272.5 Z"/></g>
<g><path style="opacity:1" fill="#bcc1c3" d="M 231.5,276.5 C 229.74,278.559 227.406,279.892 224.5,280.5C 226.26,278.441 228.594,277.108 231.5,276.5 Z"/></g>
<g><path style="opacity:1" fill="#c5c7c7" d="M 55.5,267.5 C 57.099,267.232 58.4324,267.566 59.5,268.5C 58.5,268.5 57.5,268.5 56.5,268.5C 56.6666,291.169 56.5,313.836 56,336.5C 55.1841,337.823 54.0174,338.489 52.5,338.5C 52.5,338.167 52.5,337.833 52.5,337.5C 53.1667,337.5 53.5,337.167 53.5,336.5C 54.1667,336.5 54.5,336.167 54.5,335.5C 55.4975,313.006 55.8308,290.339 55.5,267.5 Z"/></g>
<g><path style="opacity:1" fill="#969ea2" d="M 222.5,280.5 C 222.027,281.906 221.027,282.573 219.5,282.5C 219.973,281.094 220.973,280.427 222.5,280.5 Z"/></g>
<g><path style="opacity:1" fill="#b9bec1" d="M 219.5,282.5 C 217.469,284.755 214.802,286.088 211.5,286.5C 213.789,284.613 216.455,283.279 219.5,282.5 Z"/></g>
<g><path style="opacity:1" fill="#9ca1a4" d="M 95.5,286.5 C 97.0269,286.427 98.0269,287.094 98.5,288.5C 96.9731,288.573 95.9731,287.906 95.5,286.5 Z"/></g>
<g><path style="opacity:1" fill="#d89fa0" d="M 377.5,292.5 C 376.735,295.096 376.401,297.763 376.5,300.5C 375.833,300.5 375.167,300.5 374.5,300.5C 375.369,298.283 375.702,295.95 375.5,293.5C 373.833,293.5 372.167,293.5 370.5,293.5C 370.5,295.833 370.5,298.167 370.5,300.5C 371.5,300.5 372.5,300.5 373.5,300.5C 372.432,301.434 371.099,301.768 369.5,301.5C 369.5,298.5 369.5,295.5 369.5,292.5C 372.167,292.5 374.833,292.5 377.5,292.5 Z"/></g>
<g><path style="opacity:1" fill="#787f82" d="M 108.5,292.5 C 110.027,292.427 111.027,293.094 111.5,294.5C 109.973,294.573 108.973,293.906 108.5,292.5 Z"/></g>
<g><path style="opacity:1" fill="#f3968c" d="M 374.5,300.5 C 374.167,300.5 373.833,300.5 373.5,300.5C 372.5,300.5 371.5,300.5 370.5,300.5C 370.5,298.167 370.5,295.833 370.5,293.5C 372.167,293.5 373.833,293.5 375.5,293.5C 375.702,295.95 375.369,298.283 374.5,300.5 Z"/></g>
<g><path style="opacity:1" fill="#d6d9df" d="M 380.5,288.5 C 379.196,291.712 378.196,295.045 377.5,298.5C 378.922,302.034 379.589,305.7 379.5,309.5C 378.632,306.551 377.632,303.551 376.5,300.5C 376.401,297.763 376.735,295.096 377.5,292.5C 377.5,292.167 377.5,291.833 377.5,291.5C 378.1,290.1 379.1,289.1 380.5,288.5 Z"/></g>
<g><path style="opacity:1" fill="#898f92" d="M 111.5,294.5 C 115.329,295.367 118.663,297.033 121.5,299.5C 117.671,298.633 114.337,296.967 111.5,294.5 Z"/></g>
<g><path style="opacity:1" fill="#586c75" d="M 83.5,280.5 C 85.3057,281.024 86.9724,281.691 88.5,282.5C 87.5,282.5 86.5,282.5 85.5,282.5C 85.5,289.167 85.5,295.833 85.5,302.5C 84.8333,302.5 84.1667,302.5 83.5,302.5C 83.5,295.167 83.5,287.833 83.5,280.5 Z"/></g>
<g><path style="opacity:1" fill="#8898a0" d="M 88.5,282.5 C 89.1667,282.5 89.5,282.833 89.5,283.5C 88.5,283.5 87.5,283.5 86.5,283.5C 86.5,289.833 86.5,296.167 86.5,302.5C 86.1667,302.5 85.8333,302.5 85.5,302.5C 85.5,295.833 85.5,289.167 85.5,282.5C 86.5,282.5 87.5,282.5 88.5,282.5 Z"/></g>
<g><path style="opacity:1" fill="#d9e0e4" d="M 89.5,283.5 C 90.9952,283.989 92.3285,284.655 93.5,285.5C 91.8333,285.5 90.1667,285.5 88.5,285.5C 88.3981,294.889 87.3981,303.889 85.5,312.5C 85.5,312.167 85.5,311.833 85.5,311.5C 86.4767,308.713 86.81,305.713 86.5,302.5C 86.5,296.167 86.5,289.833 86.5,283.5C 87.5,283.5 88.5,283.5 89.5,283.5 Z"/></g>
<g><path style="opacity:1" fill="#bec3c5" d="M 183.5,300.5 C 181.566,303.058 178.899,304.391 175.5,304.5C 177.897,302.805 180.563,301.472 183.5,300.5 Z"/></g>
<g><path style="opacity:1" fill="#29353b" d="M 373.5,300.5 C 373.833,300.5 374.167,300.5 374.5,300.5C 375.167,300.5 375.833,300.5 376.5,300.5C 377.632,303.551 378.632,306.551 379.5,309.5C 378.964,312.698 379.631,315.365 381.5,317.5C 381.875,319.698 382.542,321.698 383.5,323.5C 384.5,323.833 385.167,324.5 385.5,325.5C 386.262,327.262 387.596,328.262 389.5,328.5C 391.23,329.379 392.563,330.712 393.5,332.5C 393.132,334.175 392.132,335.175 390.5,335.5C 384.794,335.829 379.128,335.495 373.5,334.5C 369.347,327.791 367.68,320.457 368.5,312.5C 368.185,308.629 368.518,304.962 369.5,301.5C 371.099,301.768 372.432,301.434 373.5,300.5 Z"/></g>
<g><path style="opacity:1" fill="#6a7275" d="M 129.5,303.5 C 133.911,304.393 137.578,306.393 140.5,309.5C 136.571,307.867 132.904,305.867 129.5,303.5 Z"/></g>
<g><path style="opacity:1" fill="#73b7f1" d="M 83.5,302.5 C 84.1667,302.5 84.8333,302.5 85.5,302.5C 85.8333,302.5 86.1667,302.5 86.5,302.5C 86.81,305.713 86.4767,308.713 85.5,311.5C 83.6122,309.012 82.9455,306.012 83.5,302.5 Z"/></g>
<g><path style="opacity:1" fill="#8f989c" d="M 171.5,306.5 C 169.967,308.245 167.967,309.245 165.5,309.5C 167.033,307.755 169.033,306.755 171.5,306.5 Z"/></g>
<g><path style="opacity:1" fill="#a1c0d8" d="M 82.5,280.5 C 82.8333,280.5 83.1667,280.5 83.5,280.5C 83.5,287.833 83.5,295.167 83.5,302.5C 82.9455,306.012 83.6122,309.012 85.5,311.5C 85.5,311.833 85.5,312.167 85.5,312.5C 84.5,312.5 83.5,312.5 82.5,312.5C 82.5,301.833 82.5,291.167 82.5,280.5 Z"/></g>
<g><path style="opacity:1" fill="#6a7176" d="M 379.5,309.5 C 380.371,312.003 381.037,314.67 381.5,317.5C 379.631,315.365 378.964,312.698 379.5,309.5 Z"/></g>
<g><path style="opacity:1" fill="#d8aeb5" d="M 366.5,318.5 C 366.389,319.117 366.056,319.617 365.5,320C 361.642,320.81 357.976,320.643 354.5,319.5C 358.566,319.693 362.566,319.36 366.5,318.5 Z"/></g>
<g><path style="opacity:1" fill="#b0b5b7" d="M 381.5,317.5 C 383.28,318.99 383.946,320.99 383.5,323.5C 382.542,321.698 381.875,319.698 381.5,317.5 Z"/></g>
<g><path style="opacity:1" fill="#eb9289" d="M 366.5,318.5 C 366.833,318.5 367.167,318.5 367.5,318.5C 368.527,327.011 364.86,329.844 356.5,327C 354.942,326.79 353.609,326.29 352.5,325.5C 352.5,324.833 352.5,324.167 352.5,323.5C 352.5,322.167 352.5,320.833 352.5,319.5C 353.167,319.5 353.833,319.5 354.5,319.5C 357.976,320.643 361.642,320.81 365.5,320C 366.056,319.617 366.389,319.117 366.5,318.5 Z"/></g>
<g><path style="opacity:1" fill="#5e6568" d="M 44.5,246.5 C 45.3324,275.997 45.8324,305.664 46,335.5C 47.7889,337.229 49.9556,337.896 52.5,337.5C 52.5,337.833 52.5,338.167 52.5,338.5C 49.0581,339.172 46.3914,338.172 44.5,335.5C 44.5,305.833 44.5,276.167 44.5,246.5 Z"/></g>
<g><path style="opacity:1" fill="#aeb2b4" d="M 385.5,325.5 C 387.404,325.738 388.738,326.738 389.5,328.5C 387.596,328.262 386.262,327.262 385.5,325.5 Z"/></g>
<g><path style="opacity:1" fill="#3c4a52" d="M 368.5,312.5 C 367.68,320.457 369.347,327.791 373.5,334.5C 379.128,335.495 384.794,335.829 390.5,335.5C 389.791,336.404 388.791,336.737 387.5,336.5C 383.167,336.5 378.833,336.5 374.5,336.5C 374.263,337.791 374.596,338.791 375.5,339.5C 376.41,341.019 377.243,342.685 378,344.5C 382.333,348.167 386.667,351.833 391,355.5C 391.613,357.495 391.113,359.162 389.5,360.5C 384.897,361.383 380.23,361.717 375.5,361.5C 368.898,360.031 363.898,356.364 360.5,350.5C 358.234,349.686 355.9,349.186 353.5,349C 352.619,348.292 351.953,347.458 351.5,346.5C 353.882,348.046 356.549,348.713 359.5,348.5C 359.392,346.217 358.559,344.217 357,342.5C 354.645,341.308 352.812,339.641 351.5,337.5C 351.183,333.298 351.517,329.298 352.5,325.5C 353.609,326.29 354.942,326.79 356.5,327C 364.86,329.844 368.527,327.011 367.5,318.5C 367.205,316.265 367.539,314.265 368.5,312.5 Z"/></g>
<g><path style="opacity:1" fill="#7a8084" d="M 352.5,323.5 C 352.5,324.167 352.5,324.833 352.5,325.5C 351.517,329.298 351.183,333.298 351.5,337.5C 351.5,340.5 351.5,343.5 351.5,346.5C 350.883,346.389 350.383,346.056 350,345.5C 349.333,339.5 349.333,333.5 350,327.5C 350.122,325.563 350.955,324.23 352.5,323.5 Z"/></g>
<g><path style="opacity:1" fill="#a0a6a9" d="M 387.5,336.5 C 383.232,336.869 379.232,337.869 375.5,339.5C 374.596,338.791 374.263,337.791 374.5,336.5C 378.833,336.5 383.167,336.5 387.5,336.5 Z"/></g>
<g><path style="opacity:1" fill="#273338" d="M 351.5,337.5 C 352.812,339.641 354.645,341.308 357,342.5C 358.559,344.217 359.392,346.217 359.5,348.5C 356.549,348.713 353.882,348.046 351.5,346.5C 351.5,343.5 351.5,340.5 351.5,337.5 Z"/></g>
<g><path style="opacity:1" fill="#838b8e" d="M 147.5,312.5 C 148.332,337.663 148.832,362.997 149,388.5C 150.011,389.337 151.178,389.67 152.5,389.5C 153.5,389.5 154.5,389.5 155.5,389.5C 154.081,390.451 152.415,390.784 150.5,390.5C 149.504,390.586 148.671,390.252 148,389.5C 147.5,363.835 147.333,338.169 147.5,312.5 Z"/></g>
<g><path style="opacity:1" fill="#a7aeb1" d="M 389.5,360.5 C 389.389,361.117 389.056,361.617 388.5,362C 383.98,362.814 379.646,362.647 375.5,361.5C 380.23,361.717 384.897,361.383 389.5,360.5 Z"/></g>
<g><path style="opacity:1" fill="#bcc1c3" d="M 158.5,388.5 C 158.423,389.75 157.756,390.583 156.5,391C 154.288,391.789 152.288,391.622 150.5,390.5C 152.415,390.784 154.081,390.451 155.5,389.5C 156.609,389.443 157.609,389.11 158.5,388.5 Z"/></g>
</svg>
